# xmcd CD database file
#
# Track frame offsets:
#	150
#	22253
#	45413
#	64182
#	84579
#	106811
#	128406
#	153495
#
# Disc length: 2323 seconds
#
# Revision: 0
# Processed by: cddbd v1.5.2PL0 Copyright (c) Steve Scherf et al.
# Submitted via: CDex 1.70beta2
#
DISCID=5d091108
DTITLE=スピカ - かざぐるま
DYEAR=2008
DGENRE=Jazz
TTITLE0=かざぐるま
TTITLE1=線香花火
TTITLE2=ハローグッバイマイフレンド
TTITLE3=君の体温
TTITLE4=Why Are You Wasting In Time?
TTITLE5=ユメ電車
TTITLE6=素直になりたいな
TTITLE7=ただ　あなたに逢いたい...
EXTD=YEAR: 2008
EXTT0=
EXTT1=
EXTT2=
EXTT3=
EXTT4=
EXTT5=
EXTT6=
EXTT7=
PLAYORDER=
